<svg id="레이어_1" data-name="레이어 1" xmlns="http://www.w3.org/2000/svg" viewBox="0 0 573.98 184.52"><defs><style>.cls-1{opacity:0.7;}.cls-2,.cls-3,.cls-4,.cls-5,.cls-6,.cls-7,.cls-8,.cls-9{fill:#728090;}.cls-2{opacity:0.4;}.cls-10,.cls-2,.cls-3,.cls-4,.cls-5,.cls-6,.cls-7,.cls-8,.cls-9{isolation:isolate;}.cls-3{opacity:0.8;}.cls-4{opacity:0.3;}.cls-5{opacity:0.6;}.cls-6{opacity:0.5;}.cls-10,.cls-7{opacity:0.2;}.cls-8{opacity:0.9;}.cls-9{opacity:0.7;}.cls-10{fill:none;stroke:#728090;stroke-miterlimit:10;stroke-width:0.25px;}</style></defs><title>수정</title><g id="큰거" class="cls-1"><circle class="cls-2" cx="49.98" cy="62.24" r="1.75"/><circle class="cls-2" cx="62.77" cy="31.33" r="1.75"/><circle class="cls-2" cx="20.55" cy="39.58" r="1.75"/><circle class="cls-3" cx="28.01" cy="68.63" r="1.75"/><circle class="cls-2" cx="51.66" cy="6.23" r="1.75"/><circle class="cls-2" cx="81.38" cy="26.41" r="1.75"/><circle class="cls-2" cx="98.13" cy="31.33" r="1.75"/><circle class="cls-3" cx="109.75" cy="23.83" r="1.75"/><circle class="cls-2" cx="121.1" cy="31.07" r="1.75"/><circle class="cls-2" cx="137.39" cy="26.41" r="1.75"/><circle class="cls-2" cx="119.35" cy="48.67" r="1.75"/><circle class="cls-2" cx="141.63" cy="54.57" r="1.75"/><circle class="cls-2" cx="156.73" cy="31.33" r="1.75"/><circle class="cls-2" cx="112.18" cy="48.67" r="1.75"/><circle class="cls-3" cx="107.19" cy="48.67" r="1.75"/><circle class="cls-2" cx="99.88" cy="48.67" r="1.75"/><circle class="cls-2" cx="78.31" cy="54.66" r="1.75"/><circle class="cls-4" cx="63.98" cy="70.38" r="1.75"/><circle class="cls-2" cx="47.59" cy="82.77" r="1.75"/><circle class="cls-2" cx="28.82" cy="76.47" r="1.75"/><circle class="cls-2" cx="64.77" cy="92.92" r="1.75"/><circle class="cls-3" cx="105.94" cy="71.28" r="1.75"/><circle class="cls-3" cx="88.23" cy="81.03" r="1.75"/><circle class="cls-2" cx="42.88" cy="107.32" r="1.75"/><circle class="cls-2" cx="59.93" cy="114.2" r="1.75"/><circle class="cls-3" cx="99.71" cy="110.11" r="1.75"/><circle class="cls-2" cx="119.23" cy="110.57" r="1.75"/><circle class="cls-4" cx="97.96" cy="140.85" r="1.75"/><circle class="cls-2" cx="120.98" cy="140.85" r="1.75"/><circle class="cls-2" cx="155.26" cy="92.66" r="1.75"/><circle class="cls-2" cx="113.46" cy="71.08" r="1.75"/><circle class="cls-2" cx="155.26" cy="70.39" r="1.75"/><circle class="cls-2" cx="191.15" cy="68.64" r="1.75"/><circle class="cls-5" cx="171.82" cy="82.37" r="1.75"/><circle class="cls-2" cx="292.13" cy="32.75" r="1.75"/><circle class="cls-2" cx="316.13" cy="14.81" r="1.75"/><circle class="cls-5" cx="350.2" cy="34.89" r="1.75"/><circle class="cls-2" cx="369.52" cy="22.36" r="1.75"/><circle class="cls-2" cx="368.37" cy="43" r="1.75"/><circle class="cls-5" cx="383.65" cy="30.68" r="1.75"/><circle class="cls-2" cx="390.63" cy="51.92" r="1.75"/><circle class="cls-2" cx="456.21" cy="25.59" r="1.75"/><circle class="cls-6" cx="481.23" cy="7.09" r="1.75"/><circle class="cls-2" cx="505.98" cy="25.59" r="1.75"/><circle class="cls-2" cx="571.21" cy="52.32" r="1.75"/></g><g id="중간사이즈" class="cls-1"><circle class="cls-6" cx="102.92" cy="67.37" r="1.27"/><circle class="cls-6" cx="116.48" cy="67.09" r="1.27"/><circle class="cls-6" cx="121.4" cy="61.02" r="1.27"/><circle class="cls-4" cx="98.13" cy="60.73" r="1.27"/><circle class="cls-5" cx="73.5" cy="65.61" r="1.27"/><circle class="cls-4" cx="56.3" cy="79.35" r="1.27"/><circle class="cls-5" cx="69.34" cy="100.78" r="1.27"/><circle class="cls-5" cx="90.03" cy="104.44" r="1.27"/><circle class="cls-4" cx="93.84" cy="118.92" r="1.27"/><circle class="cls-6" cx="64.65" cy="131.89" r="1.27"/><circle class="cls-6" cx="64.65" cy="138.37" r="1.27"/><circle class="cls-6" cx="77.36" cy="146.92" r="1.27"/><circle class="cls-5" cx="33.54" cy="164.34" r="1.27"/><circle class="cls-6" cx="46.75" cy="155.82" r="1.27"/><circle class="cls-4" cx="62.61" cy="182.85" r="1.27"/><circle class="cls-5" cx="30.15" cy="130.42" r="1.27"/><circle class="cls-6" cx="145.93" cy="65.57" r="1.27"/><circle class="cls-4" cx="131.6" cy="81.09" r="1.27"/><circle class="cls-4" cx="162.77" cy="79.35" r="1.27"/><circle class="cls-7" cx="169.78" cy="62.45" r="1.27"/><circle class="cls-7" cx="190.41" cy="76.2" r="1.27"/><circle class="cls-7" cx="129.5" cy="104.46" r="1.27"/><circle class="cls-5" cx="150.12" cy="100.88" r="1.27"/><circle class="cls-4" cx="125.21" cy="118.83" r="1.27"/><circle class="cls-6" cx="159.17" cy="114.49" r="1.27"/><circle class="cls-5" cx="154.61" cy="132.2" r="1.27"/><circle class="cls-4" cx="141.8" cy="147.08" r="1.27"/><circle class="cls-5" cx="154.61" cy="137.83" r="1.27"/><circle class="cls-5" cx="171.83" cy="155.49" r="1.27"/><circle class="cls-7" cx="185.58" cy="164.38" r="1.27"/><circle class="cls-4" cx="156.4" cy="183.25" r="1.27"/><circle class="cls-6" cx="176.75" cy="107.56" r="1.27"/><circle class="cls-6" cx="188.2" cy="130.62" r="1.27"/><circle class="cls-7" cx="228.33" cy="134.42" r="1.27"/><circle class="cls-7" cx="225.17" cy="93.48" r="1.27"/><circle class="cls-5" cx="240.49" cy="96.82" r="1.27"/><circle class="cls-5" cx="244" cy="70.25" r="1.27"/><circle class="cls-5" cx="297.65" cy="53.37" r="1.27"/><circle class="cls-5" cx="312.71" cy="59.37" r="1.27"/><circle class="cls-5" cx="317.85" cy="56.29" r="1.27"/><circle class="cls-5" cx="335.61" cy="49.97" r="1.27"/><circle class="cls-7" cx="350.2" cy="61.09" r="1.27"/><circle class="cls-7" cx="341.26" cy="34.89" r="1.27"/><circle class="cls-5" cx="366.63" cy="34.89" r="1.27"/><circle class="cls-7" cx="383.6" cy="55.71" r="1.27"/><circle class="cls-5" cx="388.41" cy="94.35" r="1.27"/><circle class="cls-7" cx="418.04" cy="96.9" r="1.27"/><circle class="cls-5" cx="356.66" cy="119.1" r="1.27"/><circle class="cls-5" cx="543.43" cy="96.92" r="1.27"/><circle class="cls-7" cx="542.63" cy="43.1" r="1.27"/><circle class="cls-7" cx="419.53" cy="42.94" r="1.27"/><circle class="cls-7" cx="307.68" cy="83.47" r="1.27"/><circle class="cls-7" cx="337.31" cy="83.47" r="1.27"/><circle class="cls-5" cx="307.68" cy="99.6" r="1.27"/><circle class="cls-5" cx="198.96" cy="39.88" r="1.27"/><circle class="cls-7" cx="313.62" cy="24.41" r="1.27"/><circle class="cls-5" cx="327.03" cy="19.99" r="1.27"/><circle class="cls-7" cx="348.1" cy="8.75" r="1.27"/><circle class="cls-5" cx="368.25" cy="12.4" r="1.27"/><circle class="cls-5" cx="500.03" cy="65.88" r="1.27"/></g><g id="작은사이즈" class="cls-1"><circle class="cls-5" cx="68.23" cy="65.45" r="0.95"/><circle class="cls-5" cx="63.18" cy="61.44" r="0.95"/><circle class="cls-5" cx="57.58" cy="72.12" r="0.95"/><circle class="cls-3" cx="68.54" cy="70.38" r="0.95"/><circle class="cls-5" cx="56.62" cy="69.85" r="0.95"/><circle class="cls-5" cx="66.64" cy="71.76" r="0.95"/><circle class="cls-2" cx="60.75" cy="77.76" r="0.95"/><circle class="cls-3" cx="62.65" cy="79.66" r="0.95"/><circle class="cls-3" cx="72.22" cy="76.81" r="0.95"/><circle class="cls-3" cx="62.23" cy="87.05" r="0.95"/><circle class="cls-2" cx="53.14" cy="79.66" r="0.95"/><circle class="cls-2" cx="77.98" cy="75.45" r="0.95"/><circle class="cls-2" cx="81.34" cy="67.95" r="0.95"/><circle class="cls-3" cx="71.55" cy="86.78" r="0.95"/><circle class="cls-5" cx="82.29" cy="65.45" r="0.95"/><circle class="cls-2" cx="82.05" cy="81.03" r="0.95"/><circle class="cls-2" cx="47.59" cy="75.86" r="0.95"/><circle class="cls-2" cx="43.51" cy="80.07" r="0.95"/><circle class="cls-3" cx="79.44" cy="93.87" r="0.95"/><circle class="cls-8" cx="46.8" cy="91.97" r="0.95"/><circle class="cls-8" cx="38.94" cy="88.68" r="0.95"/><circle class="cls-3" cx="41.27" cy="87.73" r="0.95"/><circle class="cls-3" cx="35.74" cy="73.95" r="0.95"/><circle class="cls-3" cx="37.99" cy="61.44" r="0.95"/><circle class="cls-3" cx="35.74" cy="81.58" r="0.95"/><circle class="cls-8" cx="25.01" cy="82.77" r="0.95"/><circle class="cls-3" cx="19.7" cy="89.63" r="0.95"/><circle class="cls-3" cx="19.7" cy="71.68" r="0.95"/><circle class="cls-3" cx="10.41" cy="71.68" r="0.95"/><circle class="cls-6" cx="7.5" cy="61.44" r="0.95"/><circle class="cls-3" cx="25.58" cy="57.73" r="0.95"/><circle class="cls-3" cx="6.55" cy="50.01" r="0.95"/><circle class="cls-5" cx="5.6" cy="34.46" r="0.95"/><circle class="cls-5" cx="13.99" cy="30.39" r="0.95"/><circle class="cls-3" cx="13.99" cy="41.75" r="0.95"/><circle class="cls-5" cx="24.44" cy="37.63" r="0.95"/><circle class="cls-3" cx="17.43" cy="43.65" r="0.95"/><circle class="cls-5" cx="31.96" cy="27.43" r="0.95"/><circle class="cls-3" cx="11.89" cy="19.11" r="0.95"/><circle class="cls-3" cx="15.89" cy="7.49" r="0.95"/><circle class="cls-3" cx="22.92" cy="20.68" r="0.95"/><circle class="cls-3" cx="43.63" cy="27.43" r="0.95"/><circle class="cls-6" cx="28.26" cy="11.85" r="0.95"/><circle class="cls-3" cx="58.73" cy="30.84" r="0.95"/><circle class="cls-3" cx="56.83" cy="7.02" r="0.95"/><circle class="cls-6" cx="64.52" cy="11.11" r="0.95"/><circle class="cls-6" cx="104.15" cy="21.5" r="0.95"/><circle class="cls-3" cx="81.38" cy="16.68" r="0.95"/><circle class="cls-3" cx="55.94" cy="43.63" r="0.95"/><circle class="cls-3" cx="50.44" cy="44.58" r="0.95"/><circle class="cls-3" cx="56.55" cy="38.31" r="0.95"/><circle class="cls-3" cx="76.36" cy="42.68" r="0.95"/><circle class="cls-2" cx="91.79" cy="77.13" r="0.95"/><circle class="cls-3" cx="98.13" cy="65.45" r="0.95"/><circle class="cls-3" cx="91.36" cy="64.5" r="0.95"/><circle class="cls-3" cx="93.69" cy="52.91" r="0.95"/><circle class="cls-3" cx="80.72" cy="60.45" r="0.95"/><circle class="cls-3" cx="128.42" cy="76.72" r="0.95"/><circle class="cls-2" cx="138.94" cy="60.06" r="0.95"/><circle class="cls-3" cx="125.57" cy="52.31" r="0.95"/><circle class="cls-2" cx="121.4" cy="65.18" r="0.95"/><circle class="cls-2" cx="127.47" cy="64.73" r="0.95"/><circle class="cls-2" cx="136.58" cy="66.13" r="0.95"/><circle class="cls-3" cx="138.48" cy="67.79" r="0.95"/><circle class="cls-5" cx="144.89" cy="81.58" r="0.95"/><circle class="cls-3" cx="150.99" cy="70.39" r="0.95"/><circle class="cls-3" cx="137.11" cy="81.09" r="0.95"/><circle class="cls-3" cx="148.15" cy="86.82" r="0.95"/><circle class="cls-6" cx="141.09" cy="74.82" r="0.95"/><circle class="cls-3" cx="147.2" cy="76.36" r="0.95"/><circle class="cls-3" cx="140.14" cy="94.03" r="0.95"/><circle class="cls-3" cx="161.49" cy="72.14" r="0.95"/><circle class="cls-8" cx="156.53" cy="79.02" r="0.95"/><circle class="cls-5" cx="160.94" cy="99.61" r="0.95"/><circle class="cls-3" cx="156.53" cy="87.03" r="0.95"/><circle class="cls-3" cx="165.94" cy="79.68" r="0.95"/><circle class="cls-3" cx="171.82" cy="76.2" r="0.95"/><circle class="cls-3" cx="172.62" cy="92.21" r="0.95"/><circle class="cls-5" cx="175.99" cy="80.62" r="0.95"/><circle class="cls-3" cx="177.63" cy="87.03" r="0.95"/><circle class="cls-5" cx="180.53" cy="88.93" r="0.95"/><circle class="cls-3" cx="183.71" cy="81.57" r="0.95"/><circle class="cls-3" cx="183.71" cy="73.97" r="0.95"/><circle class="cls-3" cx="194.24" cy="82.73" r="0.95"/><circle class="cls-3" cx="199.14" cy="89.88" r="0.95"/><circle class="cls-3" cx="208.9" cy="72.35" r="0.95"/><circle class="cls-3" cx="193.85" cy="58.05" r="0.95"/><circle class="cls-3" cx="181.15" cy="61.98" r="0.95"/><circle class="cls-3" cx="211.89" cy="61.4" r="0.95"/><circle class="cls-6" cx="199.14" cy="71.4" r="0.95"/><circle class="cls-3" cx="241.76" cy="76.05" r="0.95"/><circle class="cls-3" cx="232.82" cy="80.09" r="0.95"/><circle class="cls-3" cx="219.42" cy="82.73" r="0.95"/><circle class="cls-6" cx="218.47" cy="91.78" r="0.95"/><circle class="cls-3" cx="216.19" cy="80.09" r="0.95"/><circle class="cls-3" cx="233.77" cy="66.39" r="0.95"/><circle class="cls-3" cx="226.44" cy="63.72" r="0.95"/><circle class="cls-6" cx="220.38" cy="77" r="0.95"/><circle class="cls-3" cx="263.04" cy="69.93" r="0.95"/><circle class="cls-3" cx="275.41" cy="85.57" r="0.95"/><circle class="cls-3" cx="271.4" cy="73.42" r="0.95"/><circle class="cls-3" cx="265.89" cy="58.66" r="0.95"/><circle class="cls-3" cx="252.81" cy="77" r="0.95"/><circle class="cls-3" cx="263.04" cy="80.94" r="0.95"/><circle class="cls-6" cx="249.15" cy="50.81" r="0.95"/><circle class="cls-2" cx="284.09" cy="35.13" r="0.95"/><circle class="cls-3" cx="261.38" cy="46.43" r="0.95"/><circle class="cls-3" cx="277.25" cy="46.8" r="0.95"/><circle class="cls-3" cx="243.18" cy="38.13" r="0.95"/><circle class="cls-6" cx="242.23" cy="45.85" r="0.95"/><circle class="cls-3" cx="260.88" cy="26.83" r="0.95"/><circle class="cls-3" cx="256.63" cy="30.05" r="0.95"/><circle class="cls-2" cx="271.29" cy="31" r="0.95"/><circle class="cls-2" cx="275.35" cy="27.13" r="0.95"/><circle class="cls-2" cx="279.16" cy="23.42" r="0.95"/><circle class="cls-3" cx="255.31" cy="20.5" r="0.95"/><circle class="cls-2" cx="271.29" cy="19.54" r="0.95"/><circle class="cls-2" cx="269.38" cy="34.18" r="0.95"/><circle class="cls-3" cx="241.33" cy="16.68" r="0.95"/><circle class="cls-3" cx="262.37" cy="11.99" r="0.95"/><circle class="cls-3" cx="264.53" cy="8.46" r="0.95"/><circle class="cls-2" cx="274.4" cy="7.2" r="0.95"/><circle class="cls-5" cx="244.23" cy="19" r="0.95"/><circle class="cls-2" cx="321.05" cy="18.34" r="0.95"/><circle class="cls-2" cx="331.45" cy="11.66" r="0.95"/><circle class="cls-2" cx="341.26" cy="22.64" r="0.95"/><circle class="cls-2" cx="350.78" cy="13.35" r="0.95"/><circle class="cls-6" cx="362.55" cy="7.14" r="0.95"/><circle class="cls-6" cx="360.02" cy="19.04" r="0.95"/><circle class="cls-2" cx="351.95" cy="25.92" r="0.95"/><circle class="cls-3" cx="358.52" cy="12.61" r="0.95"/><circle class="cls-2" cx="354.3" cy="20.61" r="0.95"/><circle class="cls-6" cx="356.62" cy="33.38" r="0.95"/><circle class="cls-3" cx="371.61" cy="16.54" r="0.95"/><circle class="cls-3" cx="362.99" cy="28.93" r="0.95"/><circle class="cls-3" cx="367.3" cy="19.04" r="0.95"/><circle class="cls-3" cx="371.61" cy="28.93" r="0.95"/><circle class="cls-3" cx="377.5" cy="18.68" r="0.95"/><circle class="cls-3" cx="407.6" cy="7.36" r="0.95"/><circle class="cls-6" cx="405.51" cy="5.46" r="0.95"/><circle class="cls-6" cx="400.12" cy="11.12" r="0.95"/><circle class="cls-3" cx="396.31" cy="15.12" r="0.95"/><circle class="cls-3" cx="398.5" cy="19.92" r="0.95"/><circle class="cls-3" cx="416.99" cy="16.5" r="0.95"/><circle class="cls-3" cx="422.95" cy="26.38" r="0.95"/><circle class="cls-3" cx="433.57" cy="30.59" r="0.95"/><circle class="cls-3" cx="438.47" cy="20.96" r="0.95"/><circle class="cls-3" cx="445.89" cy="9.19" r="0.95"/><circle class="cls-3" cx="467.19" cy="10.14" r="0.95"/><circle class="cls-3" cx="460.32" cy="16.3" r="0.95"/><circle class="cls-6" cx="448.11" cy="29.28" r="0.95"/><circle class="cls-3" cx="482.18" cy="10.14" r="0.95"/><circle class="cls-5" cx="479.89" cy="9.96" r="0.95"/><circle class="cls-6" cx="478.53" cy="12.04" r="0.95"/><circle class="cls-3" cx="463.62" cy="28.94" r="0.95"/><circle class="cls-4" cx="483.53" cy="12.04" r="0.95"/><circle class="cls-3" cx="494.08" cy="9.79" r="0.95"/><circle class="cls-3" cx="489.41" cy="30.39" r="0.95"/><circle class="cls-3" cx="472.61" cy="30.68" r="0.95"/><circle class="cls-5" cx="516.47" cy="9.19" r="0.95"/><circle class="cls-3" cx="498.45" cy="28.89" r="0.95"/><circle class="cls-5" cx="523.92" cy="20.86" r="0.95"/><circle class="cls-3" cx="502.78" cy="16.48" r="0.95"/><circle class="cls-5" cx="513.18" cy="28.89" r="0.95"/><circle class="cls-5" cx="522.02" cy="22.89" r="0.95"/><circle class="cls-5" cx="543.42" cy="38.62" r="0.95"/><circle class="cls-3" cx="520.77" cy="39.17" r="0.95"/><circle class="cls-3" cx="528.44" cy="30.46" r="0.95"/><circle class="cls-5" cx="545.04" cy="16.29" r="0.95"/><circle class="cls-5" cx="538.69" cy="26.21" r="0.95"/><circle class="cls-3" cx="555.89" cy="5.68" r="0.95"/><circle class="cls-3" cx="561.91" cy="11.78" r="0.95"/><circle class="cls-3" cx="563.25" cy="20.3" r="0.95"/><circle class="cls-3" cx="565.6" cy="15.34" r="0.95"/><circle class="cls-3" cx="560.86" cy="48.75" r="0.95"/><circle class="cls-3" cx="570.83" cy="40.25" r="0.95"/><circle class="cls-3" cx="553.88" cy="65.48" r="0.95"/><circle class="cls-3" cx="564.2" cy="68.8" r="0.95"/><circle class="cls-3" cx="569.46" cy="60.79" r="0.95"/><circle class="cls-5" cx="531.62" cy="43.1" r="0.95"/><circle class="cls-6" cx="530.32" cy="52.09" r="0.95"/><circle class="cls-3" cx="541.51" cy="49.23" r="0.95"/><circle class="cls-3" cx="544.85" cy="47.33" r="0.95"/><circle class="cls-6" cx="537.04" cy="61.74" r="0.95"/><circle class="cls-3" cx="544.37" cy="59.84" r="0.95"/><circle class="cls-6" cx="524.96" cy="58.56" r="0.95"/><circle class="cls-6" cx="515.82" cy="60.79" r="0.95"/><circle class="cls-6" cx="520.77" cy="62.69" r="0.95"/><circle class="cls-5" cx="513" cy="45.32" r="0.95"/><circle class="cls-5" cx="512.53" cy="40.14" r="0.95"/><circle class="cls-3" cx="487.5" cy="35.54" r="0.95"/><circle class="cls-3" cx="497.5" cy="39.17" r="0.95"/><circle class="cls-6" cx="505.18" cy="42.5" r="0.95"/><circle class="cls-3" cx="487.4" cy="60.73" r="0.95"/><circle class="cls-3" cx="474.32" cy="60.48" r="0.95"/><circle class="cls-6" cx="500.98" cy="69.53" r="0.95"/><circle class="cls-8" cx="484.61" cy="81.19" r="0.95"/><circle class="cls-3" cx="498.32" cy="88.05" r="0.95"/><circle class="cls-8" cx="495.88" cy="79.79" r="0.95"/><circle class="cls-3" cx="503.25" cy="86.14" r="0.95"/><circle class="cls-2" cx="480.79" cy="80.74" r="0.95"/><circle class="cls-9" cx="477.33" cy="81.69" r="0.95"/><circle class="cls-3" cx="495.88" cy="98.88" r="0.95"/><circle class="cls-3" cx="500.22" cy="98.61" r="0.95"/><circle class="cls-3" cx="486.51" cy="92.21" r="0.95"/><circle class="cls-3" cx="475.43" cy="92.74" r="0.95"/><circle class="cls-6" cx="517.43" cy="79.29" r="0.95"/><circle class="cls-3" cx="514.27" cy="98.88" r="0.95"/><circle class="cls-3" cx="476.38" cy="101.67" r="0.95"/><circle class="cls-9" cx="492.74" cy="111.78" r="0.95"/><circle class="cls-3" cx="506.37" cy="112.42" r="0.95"/><circle class="cls-3" cx="484.89" cy="102.18" r="0.95"/><circle class="cls-3" cx="490.83" cy="100.28" r="0.95"/><circle class="cls-3" cx="465.94" cy="79.79" r="0.95"/><circle class="cls-3" cx="458.75" cy="86.14" r="0.95"/><circle class="cls-3" cx="464.07" cy="88.05" r="0.95"/><circle class="cls-9" cx="455.45" cy="112.49" r="0.95"/><circle class="cls-3" cx="461.79" cy="98.72" r="0.95"/><circle class="cls-9" cx="469.14" cy="111.54" r="0.95"/><circle class="cls-3" cx="465.68" cy="98.72" r="0.95"/><circle class="cls-3" cx="462.17" cy="65.89" r="0.95"/><circle class="cls-3" cx="461.22" cy="69.64" r="0.95"/><circle class="cls-3" cx="437.48" cy="82.88" r="0.95"/><circle class="cls-3" cx="437.48" cy="91.11" r="0.95"/><circle class="cls-3" cx="444.35" cy="79.35" r="0.95"/><circle class="cls-5" cx="440.76" cy="63.37" r="0.95"/><circle class="cls-5" cx="436.54" cy="58.61" r="0.95"/><circle class="cls-5" cx="445.7" cy="61.09" r="0.95"/><circle class="cls-5" cx="424.7" cy="63" r="0.95"/><circle class="cls-5" cx="431.65" cy="51.89" r="0.95"/><circle class="cls-5" cx="417.79" cy="60.14" r="0.95"/><circle class="cls-5" cx="417.3" cy="47.66" r="0.95"/><circle class="cls-5" cx="420.85" cy="49.56" r="0.95"/><circle class="cls-5" cx="430.03" cy="42.94" r="0.95"/><circle class="cls-5" cx="407.98" cy="65.56" r="0.95"/><circle class="cls-3" cx="392.66" cy="61.09" r="0.95"/><circle class="cls-3" cx="401.02" cy="48.61" r="0.95"/><circle class="cls-6" cx="397.53" cy="68.98" r="0.95"/><circle class="cls-3" cx="418.25" cy="38.23" r="0.95"/><circle class="cls-3" cx="441.78" cy="39.09" r="0.95"/><circle class="cls-3" cx="448.83" cy="40.13" r="0.95"/><circle class="cls-3" cx="474.32" cy="35.66" r="0.95"/><circle class="cls-6" cx="463.62" cy="39.47" r="0.95"/><circle class="cls-5" cx="448.11" cy="45.47" r="0.95"/><circle class="cls-3" cx="456.29" cy="42.94" r="0.95"/><circle class="cls-2" cx="411.18" cy="98.69" r="0.95"/><circle class="cls-3" cx="414.27" cy="79.25" r="0.95"/><circle class="cls-3" cx="415.51" cy="86.46" r="0.95"/><circle class="cls-3" cx="404.31" cy="93.4" r="0.95"/><circle class="cls-3" cx="386.19" cy="87.84" r="0.95"/><circle class="cls-3" cx="394.29" cy="79.19" r="0.95"/><circle class="cls-2" cx="394.29" cy="82.89" r="0.95"/><circle class="cls-3" cx="399.43" cy="81.16" r="0.95"/><circle class="cls-3" cx="377.68" cy="70.55" r="0.95"/><circle class="cls-5" cx="360.82" cy="49.22" r="0.95"/><circle class="cls-5" cx="372.43" cy="45.42" r="0.95"/><circle class="cls-3" cx="380.32" cy="62.36" r="0.95"/><circle class="cls-5" cx="367.23" cy="51.19" r="0.95"/><circle class="cls-3" cx="368.18" cy="54.44" r="0.95"/><circle class="cls-3" cx="373.38" cy="40.01" r="0.95"/><circle class="cls-5" cx="375.75" cy="52.14" r="0.95"/><circle class="cls-3" cx="390.76" cy="40.01" r="0.95"/><circle class="cls-3" cx="381.91" cy="48.61" r="0.95"/><circle class="cls-3" cx="340.75" cy="51.9" r="0.95"/><circle class="cls-2" cx="347.5" cy="44.1" r="0.95"/><circle class="cls-2" cx="333.76" cy="35.28" r="0.95"/><circle class="cls-3" cx="394.16" cy="109.18" r="0.95"/><circle class="cls-9" cx="417.3" cy="108.23" r="0.95"/><circle class="cls-2" cx="429.1" cy="113.87" r="0.95"/><circle class="cls-3" cx="419.2" cy="119.15" r="0.95"/><circle class="cls-2" cx="439.85" cy="108.95" r="0.95"/><circle class="cls-3" cx="430.05" cy="122.13" r="0.95"/><circle class="cls-3" cx="422.84" cy="132.04" r="0.95"/><circle class="cls-3" cx="447.1" cy="98.72" r="0.95"/><circle class="cls-3" cx="562.66" cy="81.28" r="0.95"/><circle class="cls-3" cx="546.41" cy="86.26" r="0.95"/><circle class="cls-3" cx="547.36" cy="79.37" r="0.95"/><circle class="cls-3" cx="567.49" cy="79.37" r="0.95"/><circle class="cls-3" cx="558.1" cy="93.59" r="0.95"/><circle class="cls-3" cx="550.4" cy="98.8" r="0.95"/><circle class="cls-2" cx="567.56" cy="108.98" r="0.95"/><circle class="cls-3" cx="544.14" cy="108.95" r="0.95"/><circle class="cls-5" cx="532.95" cy="113.13" r="0.95"/><circle class="cls-3" cx="524.76" cy="90.74" r="0.95"/><circle class="cls-3" cx="522.1" cy="108.95" r="0.95"/><circle class="cls-2" cx="531.7" cy="122.38" r="0.95"/><circle class="cls-2" cx="542.52" cy="119.09" r="0.95"/><circle class="cls-5" cx="539.29" cy="131.94" r="0.95"/><circle class="cls-3" cx="524.35" cy="82.87" r="0.95"/><circle class="cls-5" cx="216.89" cy="16.34" r="0.95"/><circle class="cls-5" cx="213.04" cy="13.22" r="0.95"/><circle class="cls-3" cx="196.1" cy="20.53" r="0.95"/><circle class="cls-3" cx="221.84" cy="33.35" r="0.95"/><circle class="cls-3" cx="227.09" cy="32.01" r="0.95"/><circle class="cls-3" cx="227.9" cy="27.12" r="0.95"/><circle class="cls-6" cx="212.67" cy="50.38" r="0.95"/><circle class="cls-6" cx="201.82" cy="44.18" r="0.95"/><circle class="cls-3" cx="156.41" cy="61.5" r="0.95"/><circle class="cls-3" cx="168.51" cy="44.54" r="0.95"/><circle class="cls-3" cx="163.11" cy="44.09" r="0.95"/><circle class="cls-3" cx="142.78" cy="42.94" r="0.95"/><circle class="cls-3" cx="160.33" cy="30.53" r="0.95"/><circle class="cls-3" cx="186.81" cy="27" r="0.95"/><circle class="cls-3" cx="114.78" cy="84.33" r="0.95"/><circle class="cls-3" cx="104.72" cy="84.99" r="0.95"/><circle class="cls-3" cx="94.26" cy="96.95" r="0.95"/><circle class="cls-3" cx="124.64" cy="108.83" r="0.95"/><circle class="cls-3" cx="125.3" cy="96.54" r="0.95"/><circle class="cls-2" cx="94.24" cy="108.36" r="0.95"/><circle class="cls-2" cx="73.35" cy="107.69" r="0.95"/><circle class="cls-3" cx="55.55" cy="110.36" r="0.95"/><circle class="cls-6" cx="5.7" cy="13.1" r="0.95"/><circle class="cls-3" cx="74.13" cy="81.56" r="0.95"/><circle class="cls-3" cx="146.37" cy="107.53" r="0.95"/><circle class="cls-8" cx="163.61" cy="110.36" r="0.95"/></g><g id="라인" class="cls-1"><polyline class="cls-10" points="3.12 12.35 23.06 20.93 28.39 11.94 16.03 7.69"/><polyline class="cls-10" points="2.52 16.33 6 13.58 6.71 49.9 1.04 45.65 2.93 49.3 6 49.9"/><polyline class="cls-10" points="3.13 52.06 7.93 62.2 10.17 71.81 1.82 67.18 3.27 6.05 5.56 11.8"/><line class="cls-10" x1="3.27" y1="62.2" x2="7.49" y2="61.27"/><polygon class="cls-10" points="10.17 71.81 4.08 74.56 2.19 77.53 10.17 71.81"/><polygon class="cls-10" points="62.3 183.91 64.46 138.73 47.1 155.48 60.07 114.14 62.3 183.91"/><polygon class="cls-10" points="64.8 131.77 60.07 114.14 69.19 100.9 64.8 131.77"/><polygon class="cls-10" points="42.25 107.92 55.34 110.42 73.44 107.59 41.23 87.59 48.45 82.8 47.1 92.21 42.25 107.92"/><polyline class="cls-10" points="19.95 89.48 39 88.61 36.02 73.88 63.31 61.32 57.34 72.33 47.3 76.18 38.73 89.48"/><polyline class="cls-10" points="3.12 16.4 32.16 27.88 2.64 32.75"/><line class="cls-10" x1="2.54" y1="36.88" x2="14.59" y2="42.02"/><polyline class="cls-10" points="17.45 43.62 50.55 44.36 49.91 62.2 109.07 11.96 170.07 61.93 191 68.14 168.23 44.68 160.31 31.05 186.68 27.18 167.6 44.93 162.91 43.79 162.53 8.22 161.51 8.22 142.49 42.59 163.22 44.42 137.48 26.8 181.61 61.86 191.44 69.28 154.98 70.36 156.69 61.61 194.29 83.17 199.37 71.69 201.84 44.11 193.22 57.93 168.6 44.68 202.52 44.33 211.82 61.64 193.9 58.02 180.89 62.17 186.64 26.56 212.72 50 213.1 13.33 196.24 20.51 213.1 50.83 220.29 76.84 233.59 66.79 252.95 76.99 261.57 46.52 249.25 50.6 233.97 66.11 212.33 50.07 243.31 38.18 249.58 51.02 212.33 50.5 227.27 32.7 234.18 66.66 265.56 58.3 261.33 45.9 265.56 59.1 262.93 69.57 271.29 73.61 263.02 81.18 277.54 46.79 260.86 46.27 269.27 34.39 256.73 30.06 260.91 27.25 271.01 31.24 275.66 27.01 277.54 46.37 271.52 31.47 274.58 7.09 271.24 19.87 260.63 26.73 264.85 8.55 273.92 7.09 264.38 8.22 267.2 4.84 265.46 3.62 255.22 20.53 262.55 11.93 256.3 30.25 255.69 20.9 242.3 45.94 221.77 33.4 228.26 27.11 241.32 16.44 253.34 5.02 259.12 3.15 254.99 21 245.22 4.84 243.81 4.84 244.23 19.26 261.52 26.92 271.85 19.49"/><polyline class="cls-10" points="274.3 6.62 274.33 7.11 275.66 27.01 271.29 73.61"/><polyline class="cls-10" points="274.58 7.09 279.09 23.35 284.16 35.04 285.81 4.7 292.1 33.26 315.78 14.19 304.69 3.62"/><line class="cls-10" x1="315.36" y1="3.62" x2="315.78" y2="14.19"/><polyline class="cls-10" points="331.47 2.02 316.25 14.65 321.13 3.9"/><polyline class="cls-10" points="292.1 33.26 350.2 35.04 368.21 43.27 377.72 70.86 380.53 62.83 381.61 48.5 368.21 54.12 386.16 87.33 394.06 82.65 394.06 108.9 397.41 68.58 394.33 79.03 392.72 60.73 383.57 62.23 388.43 94.33 357.04 118.98 350.19 61.26 387.77 94.12 394.67 83.01 404.2 93.41 394.18 109.51 388.81 93.79"/><polygon class="cls-10" points="277.54 46.37 274.91 85.62 271.29 73.61 265.56 58.3 277.54 46.37"/><polyline class="cls-10" points="297.25 53.19 312.81 59.13 335.54 36.81"/><line class="cls-10" x1="274.91" y1="85.62" x2="312.81" y2="59.13"/><line class="cls-10" x1="308.15" y1="83.54" x2="274.91" y2="85.62"/><polyline class="cls-10" points="335.73 50.22 350.19 61.26 337.28 83.69"/><line class="cls-10" x1="383.65" y1="56.13" x2="350.19" y2="61.26"/><polyline class="cls-10" points="362.14 46.49 341.23 35.04 335.73 50.22 307.69 83.17 307.8 99.76 337.28 83.69 335.73 50.22 274.91 85.62 313.66 23.78"/><polyline class="cls-10" points="317.27 14.78 354.96 20.65 350.2 35.04 316.25 14.65 360.37 4.91 354.96 20.65 367.52 51.56 368.21 43.27 363.52 29.23"/><polygon class="cls-10" points="354.96 20.65 372.08 28.73 362.66 28.73 354.96 20.65"/><polyline class="cls-10" points="351.18 35.04 366.92 35.04 367.42 19.39 377.46 19.39 405.47 6.2 390.96 40.19 381.61 48.5 373.71 39.99 368.21 54.12 368.21 43.27 387.81 4.47 383.65 30.45 375.13 4.91 369.85 22.33 350.2 35.04"/><polyline class="cls-10" points="376.25 52.47 381.61 48.5 377.46 19.39 369.85 22.33 390.65 51.56 383.65 30.45 398.37 20 372.08 28.73 373.71 39.99 384.67 31.06 368.63 22.23 354.96 20.65"/><polyline class="cls-10" points="389.45 3.47 417.05 47.58 400.92 48.16 422.78 26.01 398.37 20 400.14 36.99 390.96 40.19 394.89 4.91"/><polyline class="cls-10" points="428.8 4.44 422.78 26.01 417.73 16.78 407.53 7.07"/><polyline class="cls-10" points="405.47 6.2 416.95 38.25 419.39 43.35"/><polygon class="cls-10" points="417.05 47.58 422.78 26.01 400.14 36.99 400.92 48.16 390.96 40.19 390.96 51.56 390.96 52.47 400.88 48.48 392.72 60.73 397.35 69.29 408.21 65.4 417.05 47.58"/><line class="cls-10" x1="337.28" y1="83.69" x2="357.04" y2="118.98"/><polyline class="cls-10" points="346.43 58.7 382.79 56.26 386.16 87.33"/><polyline class="cls-10" points="400.92 48.16 408.21 65.4 414.4 79.76 397.35 69.29 404.2 93.41 411.13 98.48 399.54 81.44 418.06 60.14 418.06 96.9 429.16 113.25 417.67 108.89 415.79 86.4 439.46 108.69 447.09 98.48 437.28 91.05 444.81 78.97 416.7 86.67 399.02 81.4"/><polyline class="cls-10" points="394.06 82.65 417.05 47.58 392.72 60.73"/><polygon class="cls-10" points="422.78 132.06 439.46 108.69 455.59 113.25 422.78 132.06"/><polygon class="cls-10" points="419.46 118.98 455.59 113.25 447.09 98.48 417.67 108.89 419.46 118.98"/><polyline class="cls-10" points="422.78 132.06 429.16 113.25 430.3 122.43 419.46 118.98"/><polyline class="cls-10" points="439.46 108.69 429.16 113.25 415.79 86.4"/><polyline class="cls-10" points="430.3 122.43 481.27 93.05 505.95 112.59 539.28 132.35 533.17 113.04 531.68 122.73 542.49 119.08 544.65 108.78 532.5 113.19 522.21 109.23 531.3 121.83 490.96 100.14 496.03 98.79 500.43 98.94 514.45 99.09 506.27 112.53 522.25 108.9 514.26 98.73 543.83 108.68 546.83 85.93 522.58 108.98"/><polyline class="cls-10" points="533.17 113.04 546.83 85.93 524.92 90.92 514.45 99.09"/><polygon class="cls-10" points="469.04 111.52 481.08 95.75 492.57 111.52 481.26 105.02 469.04 111.52"/><polyline class="cls-10" points="484.33 81.58 481.21 83.53 477.65 81.44 461.72 65.96 475.96 93.04 469.04 111.52"/><polyline class="cls-10" points="463.99 88.23 481.26 82.96 498.68 88.44 486.62 92.27 499.79 65.96 484.33 81.58 480.9 81 477.65 81.44 465.99 79.81 481.03 78.77 496.29 79.89 484.91 81.58"/><line class="cls-10" x1="465.79" y1="98.49" x2="447.09" y2="98.49"/><polyline class="cls-10" points="414.4 79.76 437.28 82.91 436.72 58.74 408.21 65.4 437.77 82.91"/><polyline class="cls-10" points="415.79 86.4 440.68 63.15 449.3 39.88 461.16 68.97 474.49 60.73 465.99 79.81 480.81 73.31 496.29 79.89 503.38 85.95 500.43 98.94 486.62 92.27 480.81 89.82 475.96 93.04"/><polyline class="cls-10" points="418.06 60.14 433.73 30.59 449.3 39.88 418.06 60.14 417.05 47.58 415.79 86.4"/><polyline class="cls-10" points="417.05 107.68 411.13 98.48 414.4 79.76 415.79 86.4 437.28 91.05 418.06 60.14 444.81 78.97 458.51 86.55 440.68 63.15 444.81 78.97 461.16 68.97 417.26 59.93 441.42 63.32"/><polyline class="cls-10" points="417.05 47.58 436.72 58.74 422.78 26.01 447.96 45.54 436.72 58.74"/><polyline class="cls-10" points="446.11 60.73 463.99 39.37 461.72 65.96 446.11 60.73 463.87 87.69 461.16 68.97 465.99 79.81 458.51 86.55 461.7 98.48 466.82 96.72 475.96 93.04 463.99 88.23 465.79 98.48 476.38 101.9 476.38 96.72 455.59 113.25"/><polyline class="cls-10" points="497.15 38.98 481.05 41.78 463.61 39.37 481.34 51.52 497.83 38.97 481.18 28.82 463.99 39.37 481.38 65.96 497.54 39.37 516.37 60.73 499.79 65.96 498.68 88.44 516.37 60.27"/><polyline class="cls-10" points="449.3 39.88 474.37 35.35 461.72 65.96 481.1 47.77 499.79 65.96 480.94 61.63 462.59 65.96 481.89 70.28 497.36 65.96 488.07 60.73 496.29 79.89 501.05 69.41 497.54 39.37 481.18 7.07 477.17 3.86"/><polyline class="cls-10" points="484.94 3.86 481.18 7.07 463.99 39.37"/><line class="cls-10" x1="460.27" y1="16.36" x2="468.12" y2="10.51"/><polyline class="cls-10" points="510.58 4.18 505.69 26.06 481.18 7.07 456.58 25.25 451.53 5.14"/><line class="cls-10" x1="455.78" y1="25.5" x2="505.69" y2="26.06"/><line class="cls-10" x1="438.34" y1="20.96" x2="446.11" y2="9.49"/><polyline class="cls-10" points="493.71 9.96 502.35 16.36 517.61 9.01 545.29 16.36 545.29 3.86 566.23 15.64 572.98 2.74"/><polyline class="cls-10" points="516.37 9.61 524.23 21.62 545.29 16.36"/><line class="cls-10" x1="572.98" y1="8.3" x2="563.63" y2="3.33"/><polyline class="cls-10" points="533.34 5.35 539.14 26.06 555.94 5.35 563.63 20.37 571.68 39.88 571.68 52.79 567.41 5.35"/><polyline class="cls-10" points="572.15 23.09 563.63 20.37 572.15 27.23"/><polygon class="cls-10" points="539.14 26.06 563.63 20.37 560.79 49.12 570.57 40.51 542.81 42.73 539.14 26.06"/><polyline class="cls-10" points="563.63 20.37 545.29 48.29 542.81 42.73 571.68 25.5"/><polyline class="cls-10" points="557.72 6.29 542.81 42.73 560.79 49.12 571.68 52.79"/><line class="cls-10" x1="422.78" y1="26.01" x2="433.73" y2="30.59"/><polyline class="cls-10" points="522.67 22.59 513.23 29.07 505.01 42.51"/><line class="cls-10" x1="521.34" y1="39.3" x2="513.23" y2="29.07"/><polygon class="cls-10" points="501.05 69.41 520.71 62.68 517.76 79.12 501.05 69.41"/><polyline class="cls-10" points="484.33 81.58 503.38 85.95 517.76 79.12 524.92 90.92 544.11 60.12 513.23 40.48 528.85 30.43"/><polyline class="cls-10" points="513.23 40.48 513.23 45.33 525.06 59.53 524.65 82.69 517.76 79.12 544.11 60.12 546.83 85.93 520.71 62.68 503.38 85.95"/><polygon class="cls-10" points="567.82 79.12 569.43 60.12 564.63 68.61 567.82 79.12"/><polyline class="cls-10" points="545.29 48.29 554.1 64.83 560.79 49.12 545.29 48.29 569.43 60.12 560.79 49.12 539.14 26.06 525.06 59.53 541.9 49.12 542.81 42.73"/><polyline class="cls-10" points="572.91 77.76 558.24 93.61 562.99 81.21 544.11 60.12 547.57 79.89 564.63 68.61 554.1 64.83 547.57 79.89 524.65 82.69 554.1 64.83 525.06 59.53 520.71 62.68 544.11 60.12 543.14 97.43 573.77 93.64 545.29 48.29 541.9 49.12 544.11 60.12 528.85 30.43 487.91 35.7 499.26 66.16 499.79 67.58 513.23 40.48 487.2 35.94 488.07 60.73 520.71 62.68 513.23 45.33 539.14 26.06 570.57 40.51"/><polyline class="cls-10" points="573.77 93.64 567.73 109.14 564.63 68.61 562.99 81.21 550.73 98.38 558.24 93.61 567.73 109.14"/><polyline class="cls-10" points="547.57 79.89 550.73 98.38 544.65 108.78"/><polyline class="cls-10" points="517.76 79.12 546.83 85.93 562.99 81.21 573.77 85.95"/><polyline class="cls-10" points="555.94 5.35 572.15 14.1 560.79 3.86 561.98 12.21 563.63 20.37 572.15 20.37"/><line class="cls-10" x1="474.37" y1="35.35" x2="474.49" y2="60.73"/><polyline class="cls-10" points="465.79 98.48 481.08 95.75 496.03 98.79 498.68 88.44"/><polyline class="cls-10" points="492.57 111.52 486.62 92.27 484.55 101.95 481.2 99.37 476.38 101.9"/><line class="cls-10" x1="490.54" y1="100.39" x2="484.55" y2="101.95"/><polyline class="cls-10" points="199.02 1.32 186.64 26.56 169.07 7.09"/><polygon class="cls-10" points="221.77 33.4 216.82 16.49 186.68 27.18 221.77 33.4"/><polygon class="cls-10" points="213.1 13.33 227.1 4.2 241.32 16.44 233.62 4.2 244.23 19.26 243.31 38.18 227.27 32.7 213.1 13.33"/><line class="cls-10" x1="260.63" y1="26.73" x2="228.26" y2="27.11"/><line class="cls-10" x1="201.84" y1="44.11" x2="221.77" y2="33.4"/><polyline class="cls-10" points="202.52 44.33 199.02 39.8 190.63 31.65 199.37 71.69 208.8 72.37 211.82 61.64 242.3 45.94 226.22 63.49 211.82 61.64 221.77 33.4 228.26 27.11 221.33 4.2 217.2 4.96 213.1 13.33 244.23 19.26 227.27 32.7 256.3 30.25 243.31 38.18 233.97 66.11 262.93 69.57 274.91 85.62 263.02 81.18 252.95 76.99 262.93 69.57"/><polyline class="cls-10" points="252.95 76.99 220.29 76.84 208.8 72.37 226.22 63.49 241.39 76.02 233.62 79.91 240.63 96.95 225.97 93.57 218.83 92.21 219.2 83.17 199.37 71.69"/><polyline class="cls-10" points="208.8 72.37 240.63 96.95 219.2 83.17 233.62 79.91 220.29 76.84"/><polygon class="cls-10" points="224.72 93.33 228.6 134.68 176.96 108.36 224.72 93.33"/><polyline class="cls-10" points="176.96 108.36 180.22 88.8 145.17 81.91 183.86 73.51 180.22 88.8 218.83 92.21 194.29 83.17 199.37 89.68 156.66 79.66 161.92 72.37 144.5 82.29 155.66 93.33 119.06 48.57 191 68.14 170.07 61.93 177.97 86.92 171.5 82.36 190.33 76.67 178.18 87.66"/><polygon class="cls-10" points="159.45 114 188.71 130.8 185.57 164.54 172.27 156.44 159.45 114"/><polyline class="cls-10" points="228.6 134.68 188.71 130.8 162.96 80.22"/><polygon class="cls-10" points="154.98 70.36 170.07 61.93 171.99 76.09 171.5 82.36 155.66 93.33 154.98 138.37 141.77 146.89 119.06 110.29 154.98 70.36"/><polygon class="cls-10" points="119.06 110.29 155.66 93.33 120.31 142.3 119.06 110.29"/><polyline class="cls-10" points="155.66 93.33 154.98 70.36 171.5 82.36 137.48 26.8 141.84 54.77 119.06 110.29 155.99 183.31 159.45 114 149.9 101.29 155.99 183.31 188.71 130.8 156.66 79.66"/><line class="cls-10" x1="167.53" y1="6.97" x2="156.82" y2="31.78"/><polygon class="cls-10" points="159.59 7.85 116.77 20.95 139.63 30.3 138.18 17.17 142.97 3.15 159.59 7.85"/><polygon class="cls-10" points="127.1 3.69 110.72 32.41 93.47 3.15 81.63 16.73 109.59 4.82 136.67 16.73 127.1 3.69"/><polygon class="cls-10" points="137.48 26.8 109.15 10.24 81.63 26.8 81.63 16.73 74.58 0.42 141.84 54.77 121.3 61.32 142.49 42.59 110.22 17.78 76.97 43.16 97.75 60.73 109.15 41.85 121.12 60.73 119.06 48.57 137.48 26.8"/><polyline class="cls-10" points="113.69 71.26 109.71 85.64 105.52 71.11 99.03 110.42 109.47 80.03 119.06 110.29 114.06 70.62 105.96 71.07 110.57 76.12 113.12 71.4 119.06 48.57 109.9 23.75 99.89 48.57 106.01 70.52"/><polyline class="cls-10" points="103.34 67.09 91.43 77.25 88.24 80.59 125.38 97.17 120.31 142.3 109.73 137.04 97.82 140.57 99.44 109.55 109.58 96.61 119.06 110.29 109.07 106.03 99.96 110.42 109.96 112.84 118.36 110.41"/><polygon class="cls-10" points="99.03 110.42 94.2 118.85 89.88 104.41 77.84 146.63 78.99 94.08 71.38 86.89 73.44 107.59 93.79 108.36 99.03 110.42"/><polyline class="cls-10" points="99.44 109.55 88.24 80.59 93.84 52.47 98.31 30.87 108.07 49.08 62.44 31.4 76.97 43.16 78.37 55.03 99.89 48.57 97.75 60.73 93.51 52.62 68.57 70.21 63.31 61.32 73.92 65.83 52.12 5.91 57.11 7.15 59.97 0.42 70.89 2.83 58.43 6.57"/><polygon class="cls-10" points="81.63 16.73 57.11 7.15 76.97 43.16 81.63 16.73"/><polygon class="cls-10" points="98.31 30.87 62.44 31.4 52.12 5.91 98.31 30.87"/><polyline class="cls-10" points="73.92 65.83 88.24 80.59 78.37 55.03 64.22 70.33 74.58 81.47 99.89 48.57 81.63 26.8 38.25 62.2 32.16 27.88 20.3 39.45 6.71 49.9 23.06 20.93"/><line class="cls-10" x1="59.37" y1="11.25" x2="28.39" y2="11.94"/><polyline class="cls-10" points="57.11 7.15 56.14 43.62 76.97 43.16"/><polyline class="cls-10" points="47.1 92.21 55.34 110.42 64.29 93.52 64.22 70.33 28.39 68.95 49.91 62.2 78.37 55.03 81.63 26.8 48.45 82.8 62.34 79.31 47.3 76.18 48.45 82.8 56.44 79.31 20.3 39.45 58.85 30.52 63.31 61.32 62.44 31.4 57.34 72.33 50.55 44.36 63.31 61.32 20.3 39.45"/><polyline class="cls-10" points="93.79 108.36 89.88 104.41 64.29 93.52 69.19 100.9 28.73 76.72 53.3 79.55 48.45 82.8 89.88 104.41"/><polyline class="cls-10" points="97.82 140.57 73.44 107.59 94.71 97.06"/><path class="cls-10" d="M104.71,479.07,87.54,507.19,75,498.95l.34-7,13,14.86L73.29,543.53,57.61,515.7,44,524.41,41.2,490.77l29.38-16.41-16.48-7.5L14.32,488.41l.07,3.85,25.94-1.55,12.77-23.17L10.67,454.16l1.66-4.93,26.91-12.29-.34-7.77s9.86-7.63,9.86-6.76l-2,12.47L35,443.22l-20.87,8.17,16.35-1.69,5.27-6.42-6-10.67-15.6,8.24L20.68,432h9.51L28,403.84,18,421.49l-3.88-1.23,3.11-10.13-2.84,3.73" transform="translate(-10.51 -360.22)"/><polyline class="cls-10" points="81.63 68.13 72.08 76.79 77.97 75.4 81.97 81.24 69.19 100.9 89.88 104.41 88.24 80.59 81.97 81.24 94.71 97.06 105.4 85.04 90.6 76.1"/><polyline class="cls-10" points="42.58 107.32 56.44 79.31 64.29 93.52"/><polygon class="cls-10" points="62.34 79.31 74.58 81.47 57.34 72.33 62.34 79.31"/><polyline class="cls-10" points="71.38 86.89 81.97 81.24 78.99 94.08 73.44 107.59 69.19 100.9 41.23 87.59 74.58 81.47 99.96 110.42"/><polyline class="cls-10" points="43.59 106.64 28.73 76.72 38.25 62.2 58.85 30.52 32.16 27.88 52.12 5.91"/><polygon class="cls-10" points="20.3 39.45 25.77 58.02 17.45 43.62 20.3 39.45"/><polyline class="cls-10" points="28.39 68.95 25.77 58.02 50.55 44.36 32.16 27.88"/><polyline class="cls-10" points="38.25 62.2 25.77 58.02 32.01 26.8"/><polyline class="cls-10" points="19.95 89.48 48.45 82.8 47.3 76.18 49.91 62.2 64.22 70.33 56.44 79.31 62.34 79.31 68.57 70.21 72.08 76.79"/><line class="cls-10" x1="57.34" y1="72.33" x2="56.44" y2="79.31"/></g></svg>