<svg width="70" height="66" xmlns="http://www.w3.org/2000/svg" xmlns:xlink="http://www.w3.org/1999/xlink">

 <g>
  <title>background</title>
  <rect fill="none" id="canvas_background" height="68" width="72" y="-1" x="-1"/>
 </g>
 <g>
  <title>Layer 1</title>
  <g display="none" id="레이어_1_1_">
   <g id="svg_1" display="inline">
    <image x="1" y="1" id="svg_2" transform="matrix(1,0,0,1,227,349.89) " xlink:href="KakaoTalk_Photo_2019-08-29-18-07-11.png" height="142" width="142"/>
   </g>
  </g>
  <g id="레이어_2">
   <polygon id="svg_3" fill="#B8C9F5" points="320.38800048828125,207.69100952148438 337.6940002441406,217.67498779296875 390.82501220703125,185.92599487304688 337.04400634765625,152.62799072265625 278.2139892578125,187.79901123046875 278.2139892578125,254.76199340820312 337.7380065917969,288.60699462890625 393.7860107421875,256.3800048828125 393.45098876953125,189.85598754882812 340.0010070800781,221.697998046875 339.99700927734375,244.947998046875 378.1159973144531,223.58499145507812 378.1159973144531,246.14599609375 336.94500732421875,268.4309997558594 295.27398681640625,244.94699096679688 295.27398681640625,199.07998657226562 335.7950134277344,172.96099853515625 356.27899169921875,185.6669921875 "/>
   <polygon id="svg_4" fill="#FF3A7D" points="318.4129943847656,212.28799438476562 334.97601318359375,221.92498779296875 334.97601318359375,244.947998046875 318.4129943847656,234.8909912109375 "/>
  </g>
  <g display="none" id="레이어_3">
   <polygon id="svg_5" fill="#FF3A7D" points="416.47198486328125,395.7749938964844 434.3009948730469,405.6520080566406 487.7019958496094,373.0840148925781 433.9849853515625,341.822998046875 373.8139953613281,375.4200134277344 373.8139953613281,443.2330017089844 433.364013671875,476.9800109863281 489.9859924316406,444.3500061035156 489.9859924316406,377.2040100097656 435.6029968261719,409.62298583984375 435.6029968261719,433.7929992675781 472.3819885253906,412.63800048828125 472.2829895019531,435.60101318359375 432.67498779296875,456.7349853515625 391.25,433.3139953613281 391.25,387.2049865722656 431.8999938964844,361.40301513671875 452.6400146484375,373.5459899902344 "/>
  </g>
  <g id="svg_8">
   <polygon id="svg_6" fill="#B8C9F5" points="320.38800048828125,207.69100952148438 337.6940002441406,217.67498779296875 390.82501220703125,185.92599487304688 337.04400634765625,152.62799072265625 278.2139892578125,187.79901123046875 278.2139892578125,254.76199340820312 337.7380065917969,288.60699462890625 393.7860107421875,256.3800048828125 393.45098876953125,189.85598754882812 340.0010070800781,221.697998046875 339.99700927734375,244.947998046875 378.1159973144531,223.58499145507812 378.1159973144531,246.14599609375 336.94500732421875,268.4309997558594 295.27398681640625,244.94699096679688 295.27398681640625,199.07998657226562 335.7950134277344,172.96099853515625 356.27899169921875,185.6669921875 "/>
   <polygon id="svg_7" fill="#FF3A7D" points="318.4129943847656,212.28799438476562 334.97601318359375,221.92498779296875 334.97601318359375,244.947998046875 318.4129943847656,234.8909912109375 "/>
  </g>
  <g stroke="null" id="svg_11">
   <polygon stroke="null" id="svg_9" fill="#B8C9F5" points="26.952743530273438,27.13055419921875 35.87318801879883,31.75465965270996 63.25975799560547,17.05003070831299 35.53814697265625,1.6279726028442383 5.213996887207031,17.917524337768555 5.213996887207031,48.93160629272461 35.89586639404297,64.60700225830078 64.78601837158203,49.68098831176758 64.61332702636719,18.87021827697754 37.062339782714844,33.61792755126953 37.060279846191406,44.38622283935547 56.7088508605957,34.49189376831055 56.7088508605957,44.94108581542969 35.487117767333984,55.2624397277832 14.007635116577148,44.38575744628906 14.007635116577148,23.142335891723633 34.89434814453125,11.045259475708008 45.452884674072266,16.930073738098145 "/>
   <polygon stroke="null" id="svg_10" fill="#FF3A7D" points="25.93471908569336,29.259660720825195 34.47218704223633,33.72305679321289 34.47218704223633,44.38622283935547 25.93471908569336,39.728294372558594 "/>
  </g>
 </g>
</svg>