<?xml version="1.0"?>
<svg xmlns="http://www.w3.org/2000/svg" viewBox="0 0 64 64" width="50px" height="50px" class=""><g><g id="Big_data" data-name="Big data"><path d="M31,44V35.858a3.986,3.986,0,0,1-1.87-1.083L21.879,38.87,24.905,44Z" data-original="#000000" class="active-path" data-old_color="#000000" fill="#6A7688"/><path d="M12.858,44h9.725l-2.446-4.147-7.289,4.116Z" data-original="#000000" class="active-path" data-old_color="#000000" fill="#6A7688"/><path d="M20.863,37.147l7.289-4.116a3.573,3.573,0,0,1,0-2.062l-7.289-4.116L17.827,32Z" data-original="#000000" class="active-path" data-old_color="#000000" fill="#6A7688"/><path d="M42.121,38.87,34.87,34.775A3.986,3.986,0,0,1,33,35.858V44H39.1Z" data-original="#000000" class="active-path" data-old_color="#000000" fill="#6A7688"/><path d="M33,20v8.142a3.986,3.986,0,0,1,1.87,1.083l7.251-4.1L39.1,20Z" data-original="#000000" class="active-path" data-old_color="#000000" fill="#6A7688"/><path d="M51.152,43.969l-7.289-4.116L41.417,44h9.725Z" data-original="#000000" class="active-path" data-old_color="#000000" fill="#6A7688"/><path d="M51.152,20.031,51.142,20H41.417l2.446,4.147Z" data-original="#000000" class="active-path" data-old_color="#000000" fill="#6A7688"/><path d="M31,28.142V20H24.905l-3.026,5.13,7.251,4.1A3.986,3.986,0,0,1,31,28.142Z" data-original="#000000" class="active-path" data-old_color="#000000" fill="#6A7688"/><circle cx="9" cy="19" r="2" data-original="#000000" class="active-path" data-old_color="#000000" fill="#6A7688"/><circle cx="32" cy="58" r="2" data-original="#000000" class="active-path" data-old_color="#000000" fill="#6A7688"/><circle cx="55" cy="45" r="2" data-original="#000000" class="active-path" data-old_color="#000000" fill="#6A7688"/><circle cx="9" cy="45" r="2" data-original="#000000" class="active-path" data-old_color="#000000" fill="#6A7688"/><circle cx="32" cy="6" r="2" data-original="#000000" class="active-path" data-old_color="#000000" fill="#6A7688"/><path d="M12.848,20.031l7.289,4.116L22.583,20H12.858Z" data-original="#000000" class="active-path" data-old_color="#000000" fill="#6A7688"/><path d="M10.1,22.828c-.032.01-.063.022-.1.03V41.142c.032.008.063.02.1.03L15.505,32Z" data-original="#000000" class="active-path" data-old_color="#000000" fill="#6A7688"/><circle cx="32" cy="32" r="2" data-original="#000000" class="active-path" data-old_color="#000000" fill="#6A7688"/><path d="M51.236,46.3c-.035-.1-.067-.2-.094-.3h-10.9l-5.411,9.172a4.068,4.068,0,0,1,.335.405Z" data-original="#000000" class="active-path" data-old_color="#000000" fill="#6A7688"/><path d="M33,46v8.142c.032.008.063.02.095.03L37.915,46Z" data-original="#000000" class="active-path" data-old_color="#000000" fill="#6A7688"/><path d="M31,54.142V46H26.085l4.82,8.172C30.937,54.162,30.968,54.15,31,54.142Z" data-original="#000000" class="active-path" data-old_color="#000000" fill="#6A7688"/><path d="M52.173,42.172l-4.839-8.2L44.879,38.13l7.251,4.095C52.146,42.208,52.157,42.188,52.173,42.172Z" data-original="#000000" class="active-path" data-old_color="#000000" fill="#6A7688"/><circle cx="55" cy="19" r="2" data-original="#000000" class="active-path" data-old_color="#000000" fill="#6A7688"/><path d="M43.137,26.853l-7.289,4.116a3.573,3.573,0,0,1,0,2.062l7.289,4.116L46.173,32Z" data-original="#000000" class="active-path" data-old_color="#000000" fill="#6A7688"/><path d="M29.174,55.172,23.763,46h-10.9c-.027.1-.059.2-.094.3l16.075,9.275A4.068,4.068,0,0,1,29.174,55.172Z" data-original="#000000" class="active-path" data-old_color="#000000" fill="#6A7688"/><path d="M54,41.142V22.858c-.032-.008-.063-.02-.095-.03L48.5,32l5.41,9.172C53.937,41.162,53.968,41.15,54,41.142Z" data-original="#000000" class="active-path" data-old_color="#000000" fill="#6A7688"/><path d="M34.826,8.828,40.237,18H51.142c.027-.1.059-.2.094-.3L35.161,8.423A4.068,4.068,0,0,1,34.826,8.828Z" data-original="#000000" class="active-path" data-old_color="#000000" fill="#6A7688"/><path d="M52.173,21.828c-.016-.016-.027-.036-.043-.053l-7.251,4.1,2.455,4.162Z" data-original="#000000" class="active-path" data-old_color="#000000" fill="#6A7688"/><path d="M33,9.858V18h4.915L33.1,9.828C33.063,9.838,33.032,9.85,33,9.858Z" data-original="#000000" class="active-path" data-old_color="#000000" fill="#6A7688"/><path d="M19.121,38.13l-2.455-4.162-4.839,8.2c.016.016.027.036.043.053Z" data-original="#000000" class="active-path" data-old_color="#000000" fill="#6A7688"/><path d="M11.827,21.828l4.839,8.2,2.455-4.162-7.251-4.1C11.854,21.792,11.843,21.812,11.827,21.828Z" data-original="#000000" class="active-path" data-old_color="#000000" fill="#6A7688"/><path d="M12.764,17.7c.035.1.067.2.094.3H23.763l5.411-9.172a4.068,4.068,0,0,1-.335-.4Z" data-original="#000000" class="active-path" data-old_color="#000000" fill="#6A7688"/><path d="M31,18V9.858c-.032-.008-.063-.02-.095-.03L26.085,18Z" data-original="#000000" class="active-path" data-old_color="#000000" fill="#6A7688"/></g></g> </svg>
