<?xml version="1.0"?>
<svg xmlns="http://www.w3.org/2000/svg" height="512px" viewBox="0 0 448 448.13639" width="512px"><g><path d="m134.585938 376.136719h169.882812c.085938-.847657.253906-1.679688.367188-2.519531.109374-.839844.28125-1.871094.429687-2.808594.484375-2.902344 1.132813-5.773438 1.9375-8.601563.167969-.574219.28125-1.167969.464844-1.742187.867187-2.832032 1.886719-5.613282 3.0625-8.328125h-238.671875v64h238.671875c-1.175781-2.714844-2.199219-5.492188-3.0625-8.320313-.183594-.585937-.304688-1.183594-.472657-1.777344-.800781-2.820312-1.441406-5.683593-1.929687-8.574218-.148437-.9375-.308594-1.863282-.429687-2.808594-.121094-.945312-.28125-1.671875-.367188-2.519531h-169.882812c-3.894532 11.019531-15.164063 17.628906-26.683594 15.652343-11.523438-1.976562-19.941406-11.964843-19.941406-23.652343s8.417968-21.679688 19.941406-23.65625c11.519531-1.976563 22.789062 4.636719 26.683594 15.65625zm0 0" data-original="#000000" class="active-path" data-old_color="#000000" fill="#738293"/><path d="m120.058594 384.136719c0 4.417969-3.582032 8-8 8-4.417969 0-8-3.582031-8-8s3.582031-8 8-8c4.417968 0 8 3.582031 8 8zm0 0" data-original="#000000" class="active-path" data-old_color="#000000" fill="#738293"/><path d="m120.058594 280.136719c0 4.417969-3.582032 8-8 8-4.417969 0-8-3.582031-8-8s3.582031-8 8-8c4.417968 0 8 3.582031 8 8zm0 0" data-original="#000000" class="active-path" data-old_color="#000000" fill="#738293"/><path d="m384.058594 320.136719c-10.15625-.003907-20.164063 2.429687-29.183594 7.09375-9.710938 4.910156-17.980469 12.257812-24 21.320312-16.324219 24.40625-13.949219 56.789063 5.761719 78.550781 19.707031 21.761719 51.699219 27.320313 77.59375 13.484376 25.898437-13.835938 39.054687-43.519532 31.921875-72-7.132813-28.480469-32.730469-48.453126-62.09375-48.449219zm24 104h-16v8c0 4.417969-3.582032 8-8 8-4.417969 0-8-3.582031-8-8v-8h-24c-4.417969 0-8-3.582031-8-8s3.582031-8 8-8h8v-48h-8c-4.417969 0-8-3.582031-8-8s3.582031-8 8-8h24v-8c0-4.417969 3.582031-8 8-8 4.417968 0 8 3.582031 8 8v8h8c13.253906 0 24 10.746093 24 24-.023438 4.132812-1.125 8.191406-3.199219 11.769531 9.046875 5.683594 13.234375 16.671875 10.261719 26.9375-2.96875 10.261719-12.378906 17.316406-23.0625 17.292969zm0 0" data-original="#000000" class="active-path" data-old_color="#000000" fill="#738293"/><path d="m408.058594 368.136719c0-4.417969-3.582032-8-8-8h-24v16h24c4.417968 0 8-3.582031 8-8zm0 0" data-original="#000000" class="active-path" data-old_color="#000000" fill="#738293"/><path d="m408.058594 392.136719h-32v16h32c4.417968 0 8-3.582031 8-8s-3.582032-8-8-8zm0 0" data-original="#000000" class="active-path" data-old_color="#000000" fill="#738293"/><path d="m357.21875 308.847656c2.25-.800781 4.535156-1.5 6.855469-2.101562.855469-.21875 1.714843-.417969 2.578125-.609375 2.09375-.472657 4.207031-.847657 6.34375-1.144531.726562-.105469 1.457031-.238282 2.199218-.320313.289063-.039063.574219-.101563.863282-.128906v-56.40625h-304v64h277.214844c2.179687-1.066407 4.398437-2.019531 6.664062-2.855469.417969-.160156.859375-.28125 1.28125-.433594zm-21.160156-20.710937h-201.472656c-3.894532 11.019531-15.164063 17.628906-26.683594 15.652343-11.523438-1.976562-19.941406-11.964843-19.941406-23.652343s8.417968-21.679688 19.941406-23.65625c11.519531-1.976563 22.789062 4.636719 26.683594 15.65625h201.472656c4.417968 0 8 3.582031 8 8s-3.582032 8-8 8zm0 0" data-original="#000000" class="active-path" data-old_color="#000000" fill="#738293"/><path d="m376.058594 144.136719h-304v64h304zm-40 40h-201.472656c-3.894532 11.019531-15.164063 17.628906-26.683594 15.652343-11.523438-1.976562-19.941406-11.964843-19.941406-23.652343s8.417968-21.679688 19.941406-23.65625c11.519531-1.976563 22.789062 4.636719 26.683594 15.65625h201.472656c4.417968 0 8 3.582031 8 8s-3.582032 8-8 8zm0 0" data-original="#000000" class="active-path" data-old_color="#000000" fill="#738293"/><path d="m120.058594 176.136719c0 4.417969-3.582032 8-8 8-4.417969 0-8-3.582031-8-8s3.582031-8 8-8c4.417968 0 8 3.582031 8 8zm0 0" data-original="#000000" class="active-path" data-old_color="#000000" fill="#738293"/><path d="m56.058594 272.136719v-32c0-4.417969 3.582031-8 8-8h320c4.417968 0 8 3.582031 8 8v24h18.921875c.175781-.152344.230469-.367188.414062-.503907 31.054688-22.285156 44.175781-62.070312 32.460938-98.457031-11.710938-36.386719-45.570313-61.050781-83.796875-61.039062-5.15625-.023438-10.304688.4375-15.375 1.375-2.175782.410156-4.421875-.097657-6.207032-1.40625-1.785156-1.304688-2.949218-3.292969-3.21875-5.488281-6.394531-53.152344-49.515624-94.347657-102.90625-98.308594-53.386718-3.964844-102.117187 30.410156-116.292968 82.035156-.9375 3.667969-4.367188 6.132812-8.144532 5.855469-1.261718-.0625-2.574218-.0625-3.855468-.0625-43.714844.003906-82.761719 27.34375-97.714844 68.425781-14.957031 41.078125-2.625 87.125 30.859375 115.230469.121094.09375.152344.238281.257813.34375m354.597656-56c0 4.417969-3.582032 8-8 8h-320c-4.417969 0-8-3.582031-8-8v-80c0-4.417969 3.582031-8 8-8h320c4.417968 0 8 3.582031 8 8zm0 0" data-original="#000000" class="active-path" data-old_color="#000000" fill="#738293"/></g> </svg>
