<?xml version="1.0" encoding="iso-8859-1"?>
<!-- Generator: Adobe Illustrator 21.0.0, SVG Export Plug-In . SVG Version: 6.00 Build 0)  -->
<svg version="1.1" id="&#xB808;&#xC774;&#xC5B4;_1" xmlns="http://www.w3.org/2000/svg" xmlns:xlink="http://www.w3.org/1999/xlink"
	 x="0px" y="0px" viewBox="0 0 662.73 670.01" style="enable-background:new 0 0 662.73 670.01;" xml:space="preserve">
<g transform="translate(0.000000,1000.000000) scale(0.100000,-0.100000)">
	<path style="fill:#687486;" d="M34,9966l-34-34V6650V3368l34-34l34-34h3236c3528,0,3274-4,3306,56c23,41,23,5667,0,5708
		c-32,60,190,56-2960,56H760V6445V3770h-32c-84,0-200,93-250,200c-63,134-59-92-55,2761c3,2429,4,2598,20,2658c21,79,48,124,82,139
		c20,9,668,12,2660,12h2635v196v196l-34,34l-34,34H2910H68L34,9966z M3950,7760v-170h-940h-940v170v170h940h940V7760z M5410,6490
		v-170H3740H2070v170v170h1670h1670V6490z M5410,5220v-170H3740H2070v170v170h1670h1670V5220z"/>
</g>
</svg>
