<?xml version="1.0"?>
<svg xmlns="http://www.w3.org/2000/svg" id="Capa_1" enable-background="new 0 0 512 512" height="512px" viewBox="0 0 512 512" width="512px"><g><path d="m464.854 228.653c0-15.459-1.69-30.803-5.033-45.76l25.339-14.629-62.281-107.875-25.386 14.656c-22.761-20.984-49.791-36.608-79.211-45.787v-29.258h-124.563v29.259c-29.421 9.179-56.45 24.803-79.211 45.787l-25.387-14.657-62.281 107.875 25.339 14.629c-3.343 14.956-5.033 30.3-5.033 45.76s1.69 30.803 5.033 45.76l-25.339 14.63 62.281 107.874 25.385-14.656c13.734 12.662 29.034 23.35 45.463 31.87v-88.571c-25.759-25.546-40.407-60.485-40.407-96.906 0-75.231 61.206-136.437 136.437-136.437s136.437 61.206 136.437 136.437c0 36.421-14.648 71.361-40.407 96.907v88.57c16.43-8.52 31.729-19.208 45.464-31.87l25.386 14.656 62.281-107.874-25.339-14.63c3.343-14.957 5.033-30.301 5.033-45.76z" data-original="#000000" class="active-path" data-old_color="#000000" fill="#738293"/><path d="m199.918 452.333v3.585c0 30.924 25.158 56.082 56.082 56.082 30.923 0 56.082-25.158 56.082-56.082v-3.585z" data-original="#000000" class="active-path" data-old_color="#000000" fill="#738293"/><path d="m241 347.667v-85.453l-38.273-38.274 21.213-21.213 32.06 32.06 32.06-32.06 21.213 21.213-38.273 38.273v85.453h51.029v-35.27l4.987-4.471c22.51-20.181 35.42-49.075 35.42-79.273 0-58.689-47.747-106.437-106.437-106.437-58.689 0-106.437 47.748-106.437 106.437 0 30.198 12.91 59.091 35.42 79.272l4.987 4.471v35.271h51.031z" data-original="#000000" class="active-path" data-old_color="#000000" fill="#738293"/><path d="m189.97 377.667h132.06v44.667h-132.06z" data-original="#000000" class="active-path" data-old_color="#000000" fill="#738293"/></g> </svg>
