<?xml version="1.0" encoding="iso-8859-1"?>
<!-- Generator: Adobe Illustrator 21.0.0, SVG Export Plug-In . SVG Version: 6.00 Build 0)  -->
<svg version="1.1" id="&#xB808;&#xC774;&#xC5B4;_1" xmlns="http://www.w3.org/2000/svg" xmlns:xlink="http://www.w3.org/1999/xlink"
	 x="0px" y="0px" viewBox="0 0 400 448" style="enable-background:new 0 0 400 448;" xml:space="preserve">
<g>
	<g id="Big_data">
		<path style="fill:#738293;" d="M192,320v-65.136c-5.689-1.455-10.866-4.454-14.96-8.664l-58.008,32.76L143.24,320H192z"/>
		<path style="fill:#738293;" d="M46.864,320h77.8l-19.568-33.176l-58.312,32.928L46.864,320z"/>
		<path style="fill:#738293;" d="M110.904,265.176l58.312-32.928c-1.621-5.379-1.621-11.117,0-16.496l-58.312-32.928L86.616,224
			L110.904,265.176z"/>
		<path style="fill:#738293;" d="M280.968,278.96L222.96,246.2c-4.094,4.21-9.271,7.209-14.96,8.664V320h48.8L280.968,278.96z"/>
		<path style="fill:#738293;" d="M208,128v65.136c5.689,1.455,10.866,4.454,14.96,8.664l58.008-32.8L256.8,128H208z"/>
		<path style="fill:#738293;" d="M353.216,319.752l-58.312-32.928L275.336,320h77.8L353.216,319.752z"/>
		<path style="fill:#738293;" d="M353.216,128.248l-0.08-0.248h-77.8l19.568,33.176L353.216,128.248z"/>
		<path style="fill:#738293;" d="M192,193.136V128h-48.76l-24.208,41.04l58.008,32.8C181.129,197.615,186.306,194.603,192,193.136z"
			/>
		<circle style="fill:#738293;" cx="16" cy="120" r="16"/>
		<circle style="fill:#738293;" cx="200" cy="432" r="16"/>
		<circle style="fill:#738293;" cx="384" cy="328" r="16"/>
		<circle style="fill:#738293;" cx="16" cy="328" r="16"/>
		<circle style="fill:#738293;" cx="200" cy="16" r="16"/>
		<path style="fill:#738293;" d="M46.784,128.248l58.312,32.928L124.664,128h-77.8L46.784,128.248z"/>
		<path style="fill:#738293;" d="M24.8,150.624c-0.256,0.08-0.504,0.176-0.8,0.24v146.272c0.256,0.064,0.504,0.16,0.8,0.24
			L68.04,224L24.8,150.624z"/>
		<circle style="fill:#738293;" cx="200" cy="224" r="16"/>
		<path style="fill:#738293;" d="M353.888,338.4c-0.28-0.8-0.536-1.6-0.752-2.4h-87.2l-43.288,73.376
			c0.962,1.021,1.857,2.103,2.68,3.24L353.888,338.4z"/>
		<path style="fill:#738293;" d="M208,336v65.136c0.256,0.064,0.504,0.16,0.76,0.24L247.32,336H208z"/>
		<path style="fill:#738293;" d="M192,401.136V336h-39.32l38.56,65.376C191.496,401.296,191.744,401.2,192,401.136z"/>
		<path style="fill:#738293;" d="M361.384,305.376l-38.712-65.6l-19.64,33.264l58.008,32.76
			C361.168,305.664,361.256,305.504,361.384,305.376z"/>
		<circle style="fill:#738293;" cx="384" cy="120" r="16"/>
		<path style="fill:#738293;" d="M289.096,182.824l-58.312,32.928c1.621,5.379,1.621,11.117,0,16.496l58.312,32.928L313.384,224
			L289.096,182.824z"/>
		<path style="fill:#738293;" d="M177.392,409.376L134.104,336h-87.2c-0.216,0.8-0.472,1.6-0.752,2.4l128.6,74.2
			C175.562,411.47,176.444,410.393,177.392,409.376z"/>
		<path style="fill:#738293;" d="M376,297.136V150.864c-0.256-0.064-0.504-0.16-0.76-0.24L332,224l43.28,73.376
			C375.496,297.296,375.744,297.2,376,297.136z"/>
		<path style="fill:#738293;" d="M222.608,38.624L265.896,112h87.24c0.216-0.8,0.472-1.6,0.752-2.4l-128.6-74.216
			C224.465,36.521,223.57,37.603,222.608,38.624z"/>
		<path style="fill:#738293;" d="M361.384,142.624c-0.128-0.128-0.216-0.288-0.344-0.424L303.032,175l19.64,33.296L361.384,142.624z
			"/>
		<path style="fill:#738293;" d="M208,46.864V112h39.32L208.8,46.624C208.504,46.704,208.256,46.8,208,46.864z"/>
		<path style="fill:#738293;" d="M96.968,273.04l-19.64-33.296l-38.712,65.6c0.128,0.128,0.216,0.288,0.344,0.424L96.968,273.04z"/>
		<path style="fill:#738293;" d="M38.616,142.624l38.712,65.6l19.64-33.296l-58.008-32.8
			C38.832,142.336,38.744,142.496,38.616,142.624z"/>
		<path style="fill:#738293;" d="M46.112,109.6c0.28,0.8,0.536,1.6,0.752,2.4h87.24l43.288-73.376
			c-0.961-1.008-1.856-2.077-2.68-3.2L46.112,109.6z"/>
		<path style="fill:#738293;" d="M192,112V46.864c-0.256-0.064-0.504-0.16-0.76-0.24L152.68,112H192z"/>
	</g>
</g>
</svg>
